<?xml version="1.0" encoding="UTF-8"?>
<!DOCTYPE svg PUBLIC "-//W3C//DTD SVG 1.1//EN" "http://www.w3.org/Graphics/SVG/1.1/DTD/svg11.dtd">
<!-- Creator: CorelDRAW X7 -->
<svg xmlns="http://www.w3.org/2000/svg" xml:space="preserve" width="210mm" height="297mm" version="1.1" style="shape-rendering:geometricPrecision; text-rendering:geometricPrecision; image-rendering:optimizeQuality; fill-rule:evenodd; clip-rule:evenodd"
viewBox="0 0 21000 29700"
 xmlns:xlink="http://www.w3.org/1999/xlink">
 <defs>
  <style type="text/css">
   <![CDATA[
    .fil1 {fill:black}
    .fil4 {fill:blue}
    .fil0 {fill:#00A5D7}
    .fil5 {fill:#CBCBCB}
    .fil6 {fill:black;fill-rule:nonzero}
    .fil3 {fill:blue;fill-rule:nonzero}
    .fil2 {fill:#00A5D7;fill-rule:nonzero}
   ]]>
  </style>
 </defs>
 <g id="Capa_x0020_1">
  <metadata id="CorelCorpID_0Corel-Layer"/>
  <path class="fil0" d="M-11605 9851c330,-127 452,-3 654,57 -3,26 -3,48 -12,101 -219,72 -343,-4 -642,-158zm306 -210c25,0 45,20 45,44 0,25 -20,45 -45,45 -24,0 -44,-20 -44,-45 0,-24 20,-44 44,-44zm136 8c7,0 14,6 14,14 0,8 -7,14 -14,14 -8,0 -15,-6 -15,-14 0,-8 7,-14 15,-14zm-33 97c8,0 14,-7 14,-14 0,-8 -6,-15 -14,-15 -8,0 -14,7 -14,15 0,7 6,14 14,14z"/>
  <polygon class="fil1" points="-10104,11110 -1678,11110 -1678,11222 -10104,11222 "/>
  <path class="fil2" d="M-7605 9252c46,0 85,20 118,60 33,40 50,90 50,151l-963 0c-49,0 -94,-11 -136,-32 -42,-21 -79,-50 -111,-87 -32,-36 -57,-80 -75,-130 -18,-50 -27,-103 -27,-160l0 -369c0,-57 9,-109 27,-159 18,-49 43,-92 75,-129 32,-37 69,-66 111,-87 42,-21 87,-31 136,-31l963 0c0,60 -17,111 -50,151 -33,39 -72,59 -118,59l-963 0 0 565c0,55 16,102 49,141 32,38 72,57 119,57l795 0zm318 -1225c0,-55 17,-102 52,-141 34,-38 77,-57 129,-57l0 1421 168 0 0 213c-49,0 -94,-11 -137,-33 -43,-21 -80,-51 -112,-88 -32,-37 -57,-80 -75,-129 -18,-49 -27,-102 -27,-159l2 -1027zm678 945l0 85c0,55 16,101 49,139 32,37 72,56 119,56l771 0c47,2 87,22 120,62 33,40 49,90 49,151l-940 0c-49,0 -94,-11 -136,-33 -42,-21 -79,-51 -111,-88 -32,-36 -56,-80 -74,-129 -18,-49 -27,-102 -27,-158l0 -370c0,-56 9,-109 27,-158 18,-50 42,-93 74,-130 32,-37 69,-66 111,-88 42,-22 87,-32 136,-32l614 0c49,0 94,10 136,32 43,22 79,51 111,88 32,37 57,80 75,130 18,49 27,102 27,158l0 285 -1131 0zm0 -211l950 0 0 -74c0,-55 -16,-102 -48,-140 -33,-38 -72,-58 -120,-58l-782 0 0 272zm2242 -482c49,0 94,10 136,31 43,21 79,50 111,87 32,37 57,80 76,129 18,50 27,102 27,159l0 369c0,57 -9,110 -27,160 -19,50 -44,94 -76,130 -32,37 -68,66 -111,87 -42,21 -87,32 -136,32l-614 0c-49,0 -94,-11 -136,-32 -42,-21 -79,-50 -111,-87 -32,-36 -56,-80 -74,-130 -18,-50 -27,-103 -27,-160l0 -293 1130 0 0 -76c0,-55 -16,-101 -48,-139 -33,-38 -72,-57 -120,-57l-769 0c-47,0 -87,-20 -119,-59 -32,-40 -48,-91 -48,-151l936 0zm168 693l-950 0 0 82c0,55 17,102 50,141 32,38 72,57 118,57l782 0 0 -280zm1503 293c0,33 -6,62 -18,87 -12,25 -26,45 -44,62 -17,17 -37,29 -58,37 -22,8 -42,12 -61,12l0 -778c0,-28 -4,-53 -13,-77 -9,-24 -21,-45 -36,-62 -16,-17 -34,-31 -54,-41 -21,-11 -43,-16 -66,-16l-641 0 0 776c0,33 -6,62 -18,87 -11,25 -26,45 -43,62 -18,17 -37,29 -58,37 -21,8 -42,12 -62,12l0 -778c0,-57 9,-109 27,-159 18,-49 43,-92 75,-129 32,-37 69,-66 112,-88 43,-22 88,-33 137,-33l471 0c48,0 93,11 136,33 42,22 79,51 110,88 32,37 57,80 76,129 19,50 28,102 28,159l0 580z"/>
  <path class="fil3" d="M-9636 10397l116 0 0 -653 -116 0 0 653zm184 -127c0,71 45,137 120,137 44,0 82,-20 106,-55l2 0 7 45 103 0c-3,-26 -6,-67 -6,-110l0 -156c0,-106 -38,-194 -162,-194 -67,0 -118,22 -143,40l21 90c25,-18 63,-35 101,-35 58,0 68,35 68,58l0 7c-131,0 -217,55 -217,173zm114 -15c0,-53 46,-71 107,-72l0 51c0,7 0,16 -2,23 -8,28 -31,51 -59,51 -27,0 -46,-17 -46,-53zm405 142l115 0 138 -450 -121 0 -48 209c-8,38 -14,72 -20,109l-2 0c-6,-36 -13,-71 -22,-109l-50 -209 -124 0 134 450zm282 -127c0,71 44,137 119,137 44,0 82,-20 106,-55l3 0 6 45 104 0c-4,-26 -6,-67 -6,-110l0 -156c0,-106 -39,-194 -162,-194 -67,0 -118,22 -144,40l21 90c25,-18 64,-35 102,-35 57,0 68,35 68,58l0 7c-131,0 -217,55 -217,173zm113 -15c0,-53 46,-71 108,-72l0 51c0,7 0,16 -3,23 -7,28 -31,51 -59,51 -26,0 -46,-17 -46,-53zm310 142l115 0 0 -260c0,-13 2,-26 5,-35 7,-26 27,-52 58,-52 41,0 59,39 59,97l0 250 114 0 0 -267c0,-133 -56,-193 -132,-193 -62,0 -99,43 -114,72l-2 0 -6 -62 -100 0c1,40 3,87 3,143l0 307zm423 -221c0,139 70,231 158,231 47,0 92,-25 115,-76l2 0 5 66 102 0c-1,-30 -3,-83 -3,-135l0 -518 -115 0 0 243 -1 0c-17,-31 -52,-50 -98,-50 -88,0 -166,88 -165,239zm117 -5c0,-70 26,-127 79,-127 35,0 60,30 66,67 2,10 2,19 2,27l0 58c0,12 0,22 -3,32 -6,40 -33,67 -66,67 -48,0 -78,-48 -78,-124zm334 6c0,140 71,230 197,230 49,0 96,-10 134,-29l-15 -96c-32,13 -63,20 -102,20 -54,0 -101,-28 -105,-86l239 0c1,-10 4,-30 4,-55 0,-111 -46,-224 -166,-224 -128,0 -186,126 -186,240zm109 -56c3,-37 22,-91 71,-91 52,0 65,58 65,91l-136 0zm310 276l116 0 0 -229c0,-10 1,-22 3,-31 7,-43 37,-71 78,-71 13,0 23,2 32,4l0 -131c-9,-2 -14,-2 -25,-2 -36,0 -81,26 -100,93l-3 0 -5 -83 -99 0c3,38 3,82 3,148l0 302zm288 0l116 0 0 -450 -116 0 0 450zm4 -506l89 0 98 -139 -115 0 -72 139zm180 379c0,71 45,137 119,137 44,0 82,-20 106,-55l3 0 6 45 104 0c-4,-26 -6,-67 -6,-110l0 -156c0,-106 -39,-194 -162,-194 -67,0 -118,22 -144,40l22 90c25,-18 63,-35 101,-35 58,0 68,35 68,58l0 7c-131,0 -217,55 -217,173zm113 -15c0,-53 47,-71 108,-72l0 51c0,7 0,16 -2,23 -8,28 -31,51 -59,51 -27,0 -47,-17 -47,-53zm469 15c0,71 45,137 120,137 44,0 82,-20 106,-55l2 0 7 45 104 0c-4,-26 -6,-67 -6,-110l0 -156c0,-106 -39,-194 -162,-194 -68,0 -118,22 -144,40l21 90c25,-18 64,-35 102,-35 57,0 68,35 68,58l0 7c-131,0 -218,55 -218,173zm114 -15c0,-53 46,-71 108,-72l0 51c0,7 0,16 -3,23 -7,28 -31,51 -59,51 -26,0 -46,-17 -46,-53zm309 -44c0,142 56,196 129,196 66,0 100,-43 117,-74l1 0 5 64 101 0c-1,-38 -3,-86 -3,-144l0 -306 -116 0 0 267c0,12 -1,22 -3,31 -8,24 -27,49 -58,49 -41,0 -57,-41 -57,-106l0 -241 -116 0 0 264zm489 156c19,24 50,40 88,40 32,0 59,-7 74,-13l0 -107c-9,3 -20,5 -35,5 -34,0 -45,-25 -45,-79l0 -163 83 0 0 -103 -83 0 0 -129 -113 32 0 97 -50 0 0 103 50 0 0 184c0,64 10,106 31,133zm210 -195c0,148 82,235 189,235 92,0 198,-67 198,-236 0,-144 -78,-234 -189,-234 -109,0 -198,83 -198,235zm119 0c0,-62 18,-136 75,-136 56,0 74,74 74,137 0,74 -24,133 -74,133 -51,0 -75,-62 -75,-134zm317 202c27,19 71,33 120,33 105,0 160,-63 160,-147 -1,-66 -30,-109 -101,-139 -45,-19 -59,-30 -59,-51 0,-22 15,-37 43,-37 32,0 64,16 81,26l20 -97c-23,-13 -61,-25 -104,-25 -93,0 -151,62 -151,147 0,53 29,104 106,135 42,17 54,28 54,51 0,24 -16,38 -50,38 -33,0 -77,-18 -99,-34l-20 100zm329 -197c0,140 72,230 198,230 49,0 96,-10 134,-29l-16 -96c-31,13 -62,20 -102,20 -54,0 -100,-28 -104,-86l238 0c2,-10 5,-30 5,-55 0,-111 -47,-224 -166,-224 -129,0 -187,126 -187,240zm109 -56c3,-37 23,-91 71,-91 52,0 65,58 65,91l-136 0zm311 276l116 0 0 -229c0,-10 1,-22 2,-31 8,-43 37,-71 79,-71 13,0 22,2 31,4l0 -131c-9,-2 -14,-2 -24,-2 -37,0 -81,26 -100,93l-3 0 -5 -83 -99 0c2,38 3,82 3,148l0 302zm384 0l115 0 138 -450 -122 0 -47 209c-9,38 -15,72 -21,109l-2 0c-6,-36 -12,-71 -21,-109l-50 -209 -125 0 135 450zm305 0l115 0 0 -450 -115 0 0 450zm56 -505c39,0 63,-32 62,-70 0,-41 -23,-71 -60,-71 -36,0 -61,30 -61,71 0,38 23,70 59,70zm130 284c0,141 77,231 196,231 44,0 82,-10 103,-22l-13 -103c-18,9 -39,15 -67,15 -55,0 -100,-44 -100,-127 -1,-73 38,-126 99,-126 30,0 50,7 64,15l18 -105c-24,-11 -57,-17 -88,-17 -137,0 -212,107 -212,239zm362 221l116 0 0 -450 -116 0 0 450zm57 -505c39,0 63,-32 62,-70 0,-41 -23,-71 -61,-71 -36,0 -60,30 -60,71 0,38 23,70 59,70zm130 280c0,148 82,235 189,235 92,0 198,-67 198,-236 0,-144 -78,-234 -189,-234 -109,0 -198,83 -198,235zm119 0c0,-62 18,-136 75,-136 56,0 74,74 74,137 0,74 -24,133 -74,133 -51,0 -75,-62 -75,-134z"/>
  <path class="fil1" d="M-10118 11222l0 -2829c0,-153 -123,-279 -273,-279l-2323 0c-150,0 -273,126 -273,279l0 372 -111 -24 0 -348c0,-214 173,-389 384,-389l2323 0c211,0 384,175 384,389l0 2829 -111 0z"/>
  <path class="fil1" d="M-10627 8252c100,0 180,81 180,181 0,99 -80,180 -180,180 -100,0 -181,-81 -181,-180 0,-100 81,-181 181,-181zm0 64c64,0 116,52 116,117 0,64 -52,116 -116,116 -64,0 -116,-52 -116,-116 0,-65 52,-117 116,-117z"/>
  <polygon class="fil1" points="-11275,8527 -10871,8527 -10871,8590 -11275,8590 "/>
  <polygon class="fil1" points="-12602,8299 -12531,8299 -12531,8595 -12602,8595 "/>
  <path class="fil1" d="M-10659 9647l101 0c32,0 57,26 57,57l0 339c0,31 -25,57 -57,57l-103 0c-105,449 -508,784 -990,784 -561,0 -1016,-455 -1016,-1016 0,-561 455,-1016 1016,-1016 486,0 891,340 992,795zm-992 -629c470,0 851,381 851,850 0,470 -381,850 -851,850 -469,0 -850,-380 -850,-850 0,-469 381,-850 850,-850z"/>
  <path class="fil4" d="M-10980 10072l-1 5 -11 32 -13 32 -14 31 -15 30 -17 30 -18 28 -20 28 -21 26 -22 26 -23 24 -24 23 -26 22 -26 21 -28 19 -28 19 -29 17 -31 15 -31 14 -32 13 -32 11 -33 9 -34 8 -35 6 -35 5 -35 2 -37 1 -36 -1 -35 -2 -35 -5 -35 -6 -34 -8 -33 -9 -32 -11 -32 -13 -31 -14 -31 -15 -29 -17 -28 -19 -28 -19 -26 -21 -26 -22 -24 -23 -23 -24 -22 -26 -21 -26 -20 -28 -18 -28 -17 -30 -15 -30 -14 -31 -13 -32 -11 -32 -9 -34 -8 -33 -6 -35 -5 -35 -2 -31c135,-75 283,-121 478,-99 299,35 532,356 892,262zm-880 190c29,0 53,24 53,53 0,29 -24,52 -53,52 -29,0 -52,-23 -52,-52 0,-29 23,-53 52,-53zm-213 -230c49,0 88,40 88,89 0,49 -39,89 -88,89 -49,0 -89,-40 -89,-89 0,-49 40,-89 89,-89z"/>
  <path class="fil5" d="M-11651 9039c458,0 830,371 830,829 0,458 -372,829 -830,829 -457,0 -829,-371 -829,-829 0,-458 372,-829 829,-829zm0 111c397,0 719,322 719,718 0,397 -322,719 -719,719 -396,0 -718,-322 -718,-719 0,-396 322,-718 718,-718z"/>
  <path class="fil6" d="M-17642 8317l-1253 0 0 -282 1744 0 -1498 2587 1585 0 0 285 -2072 0 1494 -2590zm1676 625c278,0 516,98 711,294 195,196 293,434 293,713 0,278 -98,514 -293,712 -195,196 -433,294 -711,294 -278,0 -515,-98 -712,-294 -196,-198 -295,-434 -295,-712 0,-279 99,-517 295,-713 197,-196 434,-294 712,-294zm0 291c-197,0 -365,70 -505,210 -139,141 -209,309 -209,506 0,196 69,365 209,503 138,139 307,209 505,209 196,0 365,-70 504,-209 139,-138 209,-307 209,-503 0,-197 -70,-365 -209,-506 -139,-140 -308,-210 -504,-210zm2846 1126l287 107c-66,89 -119,153 -158,192 -197,199 -434,297 -714,297 -277,0 -514,-98 -711,-294 -197,-198 -295,-435 -295,-715 0,-277 98,-514 295,-710 197,-196 434,-294 711,-294 280,0 516,99 712,295 40,39 94,103 160,192l-287 106c-35,-44 -62,-75 -81,-94 -139,-138 -307,-208 -504,-208 -196,0 -364,70 -503,209 -138,140 -208,308 -208,504 0,199 70,368 208,506 139,139 307,209 503,209 197,0 366,-71 506,-211 17,-18 44,-47 79,-91z"/>
  <path class="fil2" d="M-7699 10950l72 0 25 -86c6,-23 11,-46 16,-76l1 0c4,30 9,52 15,77l23 85 72 0 75 -245 -74 0 -21 97c-6,28 -11,56 -14,84l-2 0c-5,-28 -11,-56 -18,-83l-24 -98 -61 0 -26 101c-5,24 -13,52 -18,80l-1 0c-4,-28 -9,-56 -14,-81l-19 -100 -78 0 71 245zm381 0l73 0 24 -86c6,-23 11,-46 16,-76l1 0c4,30 9,52 15,77l23 85 72 0 75 -245 -74 0 -21 97c-6,28 -11,56 -14,84l-1 0c-5,-28 -12,-56 -18,-83l-25 -98 -60 0 -26 101c-6,24 -14,52 -19,80l0 0c-5,-28 -10,-56 -15,-81l-19 -100 -78 0 71 245zm382 0l72 0 24 -86c6,-23 11,-46 16,-76l1 0c5,30 9,52 16,77l23 85 71 0 75 -245 -74 0 -21 97c-6,28 -11,56 -14,84l-1 0c-5,-28 -12,-56 -18,-83l-25 -98 -60 0 -26 101c-6,24 -14,52 -18,80l-1 0c-4,-28 -9,-56 -14,-81l-20 -100 -78 0 72 245zm329 -40c0,27 19,46 45,46 27,0 45,-19 45,-46 0,-28 -19,-47 -45,-47 -26,0 -45,19 -45,47zm116 40l214 0 0 -60 -118 0 0 -1c14,-14 26,-29 40,-46l74 -92 0 -46 -201 0 0 61 107 0 0 1c-14,14 -24,27 -38,43l-78 97 0 43zm241 -122c0,81 55,128 125,128 61,0 132,-37 132,-129 0,-78 -52,-128 -126,-128 -72,0 -131,46 -131,129zm79 0c0,-34 12,-74 50,-74 37,0 49,40 49,74 0,41 -16,73 -49,73 -34,0 -50,-34 -50,-73zm210 2c0,77 51,126 130,126 29,0 55,-6 69,-12l-9 -56c-13,5 -26,8 -45,8 -36,0 -66,-24 -66,-69 -1,-40 25,-69 65,-69 20,0 34,4 43,8l12 -57c-16,-6 -38,-10 -59,-10 -91,0 -140,59 -140,131zm227 -2c0,81 54,128 125,128 61,0 131,-37 131,-129 0,-78 -51,-128 -125,-128 -72,0 -131,46 -131,129zm79 0c0,-34 12,-74 49,-74 37,0 50,40 50,74 0,41 -16,73 -50,73 -33,0 -49,-34 -49,-73zm210 2c0,77 51,126 130,126 29,0 54,-6 68,-12l-9 -56c-12,5 -25,8 -44,8 -37,0 -67,-24 -67,-69 0,-40 26,-69 66,-69 20,0 34,4 43,8l12 -57c-16,-6 -38,-10 -59,-10 -91,0 -140,59 -140,131zm240 120l77 0 0 -356 -77 0 0 356zm124 -120c0,77 48,126 131,126 33,0 64,-6 89,-16l-10 -52c-21,7 -42,11 -68,11 -35,0 -67,-15 -69,-47l158 0c1,-5 3,-17 3,-30 0,-61 -31,-123 -110,-123 -85,0 -124,69 -124,131zm72 -30c2,-20 15,-50 48,-50 34,0 43,32 43,50l-91 0zm191 81c0,39 30,75 80,75 29,0 54,-11 70,-30l1 0 5 24 69 0c-3,-14 -4,-36 -4,-59l0 -86c0,-57 -26,-106 -108,-106 -44,0 -78,12 -95,22l14 49c16,-9 42,-18 67,-18 38,0 45,18 45,31l0 4c-86,0 -144,30 -144,94zm76 -8c0,-29 30,-39 71,-39l0 28c0,4 0,9 -2,12 -5,16 -20,28 -39,28 -17,0 -30,-9 -30,-29zm205 77l77 0 0 -141c0,-7 1,-15 3,-19 5,-14 17,-29 39,-29 27,0 38,22 38,53l0 136 76 0 0 -145c0,-72 -37,-106 -87,-106 -42,0 -66,24 -76,40l-2 0 -3 -34 -67 0c1,22 2,48 2,78l0 167zm289 -40c0,27 19,46 45,46 27,0 45,-19 45,-46 0,-28 -19,-47 -45,-47 -26,0 -45,19 -45,47zm122 -80c0,77 48,126 131,126 33,0 64,-6 89,-16l-10 -52c-21,7 -42,11 -68,11 -35,0 -67,-15 -69,-47l158 0c1,-5 3,-17 3,-30 0,-61 -30,-123 -110,-123 -85,0 -124,69 -124,131zm73 -30c2,-20 15,-50 47,-50 34,0 43,32 43,50l-90 0zm192 138c18,10 48,18 80,18 70,0 106,-34 106,-80 0,-36 -20,-60 -67,-76 -30,-10 -39,-16 -39,-28 0,-12 10,-20 29,-20 21,0 42,9 53,14l14 -53c-16,-7 -41,-14 -70,-14 -61,0 -100,34 -100,81 0,29 19,56 71,73 27,10 35,16 35,29 0,13 -10,20 -33,20 -22,0 -51,-10 -65,-18l-14 54z"/>
  <g id="_1845828039600">
   <path class="fil0" d="M10662 7861c331,-127 452,-2 654,58 -2,25 -2,47 -12,100 -219,72 -343,-4 -642,-158zm307 -210c24,0 44,20 44,45 0,24 -20,44 -44,44 -25,0 -45,-20 -45,-44 0,-25 20,-45 45,-45zm135 8c8,0 14,7 14,14 0,8 -6,14 -14,14 -8,0 -14,-6 -14,-14 0,-7 6,-14 14,-14zm-32 97c7,0 14,-6 14,-14 0,-8 -7,-14 -14,-14 -8,0 -15,6 -15,14 0,8 7,14 15,14z"/>
   <path class="fil1" d="M11609 7658l101 0c31,0 57,25 57,56l0 339c0,32 -26,57 -57,57l-104 0c-105,450 -508,785 -989,785 -561,0 -1016,-455 -1016,-1016 0,-561 455,-1016 1016,-1016 485,0 891,340 992,795zm-992 -630c469,0 850,381 850,851 0,469 -381,850 -850,850 -470,0 -850,-381 -850,-850 0,-470 380,-851 850,-851z"/>
   <path class="fil4" d="M11287 8082l-1 5 -11 33 -12 31 -14 31 -16 31 -17 29 -18 28 -20 28 -20 26 -22 26 -24 24 -24 23 -25 22 -27 21 -27 20 -29 18 -29 17 -30 15 -31 14 -32 13 -33 11 -33 9 -34 8 -34 6 -35 5 -36 3 -36 0 -36 0 -36 -3 -35 -5 -34 -6 -34 -8 -34 -9 -32 -11 -32 -13 -31 -14 -30 -15 -30 -17 -28 -18 -27 -20 -27 -21 -25 -22 -25 -23 -23 -24 -22 -26 -21 -26 -19 -28 -19 -28 -16 -29 -16 -31 -14 -31 -12 -31 -11 -33 -10 -33 -8 -34 -6 -35 -4 -35 -3 -31c136,-74 283,-121 479,-98 298,34 532,356 891,261zm-879 191c29,0 52,23 52,52 0,29 -23,52 -52,52 -29,0 -53,-23 -53,-52 0,-29 24,-52 53,-52zm-214 -230c49,0 89,39 89,88 0,49 -40,89 -89,89 -49,0 -89,-40 -89,-89 0,-49 40,-88 89,-88z"/>
   <path class="fil5" d="M10617 7050c458,0 829,371 829,829 0,457 -371,829 -829,829 -458,0 -829,-372 -829,-829 0,-458 371,-829 829,-829zm0 110c397,0 718,322 718,719 0,396 -321,718 -718,718 -397,0 -719,-322 -719,-718 0,-397 322,-719 719,-719z"/>
  </g>
 </g>
</svg>
