<?xml version="1.0" encoding="UTF-8"?>
<!DOCTYPE svg PUBLIC "-//W3C//DTD SVG 1.1//EN" "http://www.w3.org/Graphics/SVG/1.1/DTD/svg11.dtd">
<!-- Creator: CorelDRAW X8 -->
<svg xmlns="http://www.w3.org/2000/svg" xml:space="preserve" width="210mm" height="297mm" version="1.1" style="shape-rendering:geometricPrecision; text-rendering:geometricPrecision; image-rendering:optimizeQuality; fill-rule:evenodd; clip-rule:evenodd"
viewBox="0 0 21000 29700"
 xmlns:xlink="http://www.w3.org/1999/xlink">
 <defs>
  <style type="text/css">
   <![CDATA[
    .fil1 {fill:black}
    .fil2 {fill:blue}
    .fil0 {fill:#00A5D7}
    .fil3 {fill:#CBCBCB}
   ]]>
  </style>
 </defs>
 <g id="Capa_x0020_1">
  <metadata id="CorelCorpID_0Corel-Layer"/>
  <g id="_1845828039600">
   <path class="fil0" d="M10464 14820c535,-209 731,-3 1057,96 -3,41 -3,77 -19,165 -354,118 -554,-7 -1038,-261zm497 -345c38,0 71,32 71,74 0,39 -33,72 -71,72 -41,0 -73,-33 -73,-72 0,-42 32,-74 73,-74zm218 13c13,0 22,11 22,23 0,13 -9,23 -22,23 -13,0 -23,-10 -23,-23 0,-12 10,-23 23,-23zm-52 159c11,0 23,-9 23,-23 0,-13 -12,-23 -23,-23 -13,0 -24,10 -24,23 0,14 11,23 24,23z"/>
   <path class="fil1" d="M11995 14486l163 0c50,0 92,41 92,92l0 559c0,52 -42,93 -92,93l-168 0c-170,742 -821,1293 -1598,1293 -907,0 -1642,-749 -1642,-1673 0,-924 735,-1673 1642,-1673 783,0 1439,560 1603,1309zm-1603 -1038c758,0 1373,628 1373,1402 0,772 -615,1400 -1373,1400 -760,0 -1374,-628 -1374,-1400 0,-774 614,-1402 1374,-1402z"/>
   <path class="fil2" d="M11474 15184l-1 9 -18 54 -19 51 -23 51 -26 51 -27 48 -29 46 -33 46 -32 43 -36 43 -38 39 -39 38 -41 36 -43 35 -44 33 -47 29 -47 28 -48 25 -50 23 -52 22 -53 18 -53 15 -55 13 -55 10 -57 8 -58 5 -58 0 -58 0 -59 -5 -56 -8 -55 -10 -55 -13 -55 -15 -52 -18 -51 -22 -50 -23 -49 -25 -48 -28 -46 -29 -43 -33 -44 -35 -40 -36 -41 -38 -37 -39 -35 -43 -34 -43 -31 -46 -31 -46 -26 -48 -25 -51 -23 -51 -20 -51 -17 -54 -16 -55 -13 -56 -10 -57 -7 -58 -4 -51c219,-122 457,-199 774,-162 481,56 859,587 1439,430zm-1420 315c47,0 84,38 84,86 0,47 -37,85 -84,85 -47,0 -86,-38 -86,-85 0,-48 39,-86 86,-86zm-346 -379c79,0 144,64 144,145 0,81 -65,147 -144,147 -79,0 -144,-66 -144,-147 0,-81 65,-145 144,-145z"/>
   <path class="fil3" d="M10392 13485c740,0 1339,611 1339,1365 0,753 -599,1365 -1339,1365 -740,0 -1340,-612 -1340,-1365 0,-754 600,-1365 1340,-1365zm0 181c641,0 1160,530 1160,1184 0,652 -519,1182 -1160,1182 -642,0 -1162,-530 -1162,-1182 0,-654 520,-1184 1162,-1184z"/>
  </g>
 </g>
</svg>
